<svg width="16" height="16" viewBox="0 0 16 16" fill="none" xmlns="http://www.w3.org/2000/svg">
<g id="Group">
<path id="Shape" fill-rule="evenodd" clip-rule="evenodd" d="M15.9998 8.18194C15.9998 7.61467 15.9479 7.06921 15.8514 6.54558H8.16309V9.64012H12.5564C12.3672 10.6401 11.792 11.4874 10.9275 12.0547V14.0619H13.5657C15.1093 12.6692 15.9998 10.6183 15.9998 8.18194Z" fill="#4285F4"/>
<path id="Shape_2" fill-rule="evenodd" clip-rule="evenodd" d="M8.16316 16.0001C10.3672 16.0001 12.2151 15.2837 13.5658 14.0619L10.9275 12.0546C10.1966 12.5346 9.26149 12.8182 8.16316 12.8182C6.037 12.8182 4.23737 11.411 3.59544 9.52006H0.868164V11.5928C2.21139 14.2073 4.97206 16.0001 8.16316 16.0001Z" fill="#34A853"/>
<path id="Shape_3" fill-rule="evenodd" clip-rule="evenodd" d="M3.59555 9.52002C3.43228 9.04002 3.33952 8.5273 3.33952 8.00002C3.33952 7.47275 3.43228 6.96002 3.59555 6.48002V4.40729H0.868275C0.315399 5.48729 0 6.70911 0 8.00002C0 9.29093 0.315399 10.5128 0.868275 11.5928L3.59555 9.52002Z" fill="#FBBC05"/>
<path id="Shape_4" fill-rule="evenodd" clip-rule="evenodd" d="M8.16316 3.18182C9.36167 3.18182 10.4377 3.58546 11.2837 4.37818L13.6251 2.08364C12.2114 0.792728 10.3635 0 8.16316 0C4.97206 0 2.21139 1.79273 0.868164 4.40728L3.59544 6.48C4.23737 4.58909 6.037 3.18182 8.16316 3.18182Z" fill="#EA4335"/>
</g>
</svg>
